<svg data-v-23d2c5be="" version="1.0"
    xmlns="http://www.w3.org/2000/svg"
    xmlns:xlink="http://www.w3.org/1999/xlink" width="100%" height="100%" viewBox="0 0 340.000000 250.000000" preserveAspectRatio="xMidYMid meet" color-interpolation-filters="sRGB" class="el-tooltip" style="margin: auto;">
    <g data-v-23d2c5be="" fill="#CCCCCC" class="bordersvg b-d1" transform="translate(128.6343765258789,81.81500244140625)">
        <polyline stroke="#CCCCCC" stroke-width="3" fill-opacity="0" fill="#EEEEEE" points="41.365623474121094,20 41.365623474121094,10 82.73124694824219,0 82.73124694824219,86.36999893188477 41.365623474121094,76.36999893188477 41.365623474121094,66.36999893188477"></polyline>
        <g transform="translate(0,20)">
            <g>
                <rect stroke-width="2" class="i-icon-bg" x="0" y="0" width="82.73124694824219" height="46.369998931884766" fill-opacity="0"></rect>
            </g>
            <g transform="translate(10,3)">
                <g fill-rule="" class="tp-name">
                    <g>
                        <path d="M30.52-34.59Q30.58-34.38 30.58-33.99L30.58-33.99Q30.58-32.62 29.21-32.62L29.21-32.62Q28.60-32.62 28.11-32.84L28.11-32.84Q26.23-33.44 24.25-33.55L24.25-33.55Q21.61-33.66 20.46-33.66L20.46-33.66Q15.40-33.66 9.85-32.84L9.85-32.84L8.96-32.67L8.96-22.44Q11.05-22.39 13.78-22.50Q16.50-22.61 17.43-22.66L17.43-22.66Q21.45-22.93 24.53-22.93L24.53-22.93Q27.06-22.93 27.61-21.95L27.61-21.95Q28.11-21.07 28.35-20.46Q28.60-19.86 28.77-18.70L28.77-18.70Q28.82-18.54 28.82-18.21L28.82-18.21Q28.82-17.00 27.61-17.00L27.61-17.00Q27.06-17.00 26.46-17.21L26.46-17.21Q24.75-17.82 22.77-18.04L22.77-18.04Q20.13-18.37 16.89-18.37L16.89-18.37Q12.98-18.37 9.79-17.82L9.79-17.82L8.96-17.66L8.96-8.36L8.96-6.16Q8.96-2.69 8.42-0.39L8.42-0.39Q8.20 0.49 7.67 0.91Q7.15 1.32 6.49 1.32L6.49 1.32Q6.00 1.32 5.55 1.10Q5.12 0.88 4.90 0.49L4.90 0.49L3.96-1.10Q3.35-2.20 3.19-2.37L3.19-2.37Q2.53-3.08 2.53-3.79L2.53-3.79Q2.53-4.13 2.75-4.57L2.75-4.57Q3.02-5.12 3.02-24.25L3.02-24.25L3.02-33.11Q3.02-34.81 2.86-35.91Q2.69-37.02 2.25-38.23L2.25-38.23Q2.15-38.50 2.37-38.77Q2.58-39.05 3.14-39.05L3.14-39.05Q3.63-39.05 4.24-38.83L4.24-38.83Q5.17-38.50 6.60-37.79L6.60-37.79Q8.36-37.62 10.23-37.62L10.23-37.62Q12.65-37.62 15.76-37.84Q18.86-38.06 21.73-38.34L21.73-38.34Q23.16-38.50 25.80-38.72L25.80-38.72Q26.89-38.83 27.83-38.64Q28.77-38.45 29.09-37.90L29.09-37.90Q29.70-36.96 29.98-36.35Q30.25-35.75 30.52-34.59L30.52-34.59ZM64.90-0.66Q64.95-0.44 64.95-0.11L64.95-0.11Q64.95 1.21 63.69 1.21L63.69 1.21Q63.19 1.21 62.48 0.94L62.48 0.94Q60.77 0.28 58.63 0.06L58.63 0.06Q55.88-0.28 51.86-0.28L51.86-0.28Q46.80-0.28 43.39 0.28L43.39 0.28Q42.73 0.39 42.27 0.49Q41.80 0.60 41.47 0.66L41.47 0.66Q40.92 1.32 40.04 1.32L40.04 1.32Q38.99 1.32 38.45 0.49L38.45 0.49L37.51-1.10Q36.90-2.20 36.74-2.37L36.74-2.37Q36.08-3.08 36.08-3.79L36.08-3.79Q36.08-4.13 36.30-4.57L36.30-4.57Q36.57-5.12 36.57-24.25L36.57-24.25L36.57-33.11Q36.57-34.81 36.41-35.91Q36.24-37.02 35.80-38.23L35.80-38.23Q35.70-38.50 35.91-38.77Q36.13-39.05 36.68-39.05L36.68-39.05Q37.18-39.05 37.78-38.83L37.78-38.83Q38.72-38.50 40.15-37.79L40.15-37.79Q41.91-37.62 43.78-37.62L43.78-37.62Q46.20-37.62 49.31-37.84Q52.41-38.06 55.27-38.34L55.27-38.34Q56.70-38.50 59.34-38.72L59.34-38.72Q60.44-38.83 61.38-38.64Q62.31-38.45 62.64-37.90L62.64-37.90Q63.25-36.96 63.52-36.35Q63.80-35.75 64.07-34.59L64.07-34.59Q64.13-34.38 64.13-33.99L64.13-33.99Q64.13-32.62 62.75-32.62L62.75-32.62Q62.15-32.62 61.66-32.84L61.66-32.84Q59.78-33.44 57.80-33.55L57.80-33.55Q55.16-33.66 54.01-33.66L54.01-33.66Q48.95-33.66 43.39-32.84L43.39-32.84L42.52-32.67L42.52-22.44Q44.60-22.39 47.33-22.50Q50.05-22.61 50.98-22.66L50.98-22.66Q55-22.93 58.08-22.93L58.08-22.93Q60.61-22.93 61.16-21.95L61.16-21.95Q61.66-21.07 61.90-20.46Q62.15-19.86 62.31-18.70L62.31-18.70Q62.37-18.54 62.37-18.21L62.37-18.21Q62.37-17.00 61.16-17.00L61.16-17.00Q60.61-17.00 60.00-17.21L60.00-17.21Q58.30-17.82 56.32-18.04L56.32-18.04Q53.68-18.37 50.44-18.37L50.44-18.37Q46.53-18.37 43.34-17.82L43.34-17.82L42.52-17.66L42.52-8.36L42.52-7.21Q42.52-6.82 42.54-6.16Q42.57-5.50 42.52-4.51L42.52-4.51Q43.61-4.46 45.87-4.46L45.87-4.46Q50.16-4.46 57.42-4.90L57.42-4.90L60.44-5.06Q61.55-5.12 62.45-4.87Q63.36-4.62 63.69-4.07L63.69-4.07Q64.24-3.14 64.46-2.53Q64.68-1.93 64.90-0.66L64.90-0.66Z" transform="translate(-2.218369140625, 39.05)"></path>
                    </g>
                </g>
            </g>
        </g>
    </g>
</svg>